<?xml version="1.0" encoding="UTF-8"?>
<svg xmlns="http://www.w3.org/2000/svg" xmlns:xlink="http://www.w3.org/1999/xlink" version="1.1" viewBox="0 0 1327.4 708.8">
  <!-- Generator: Adobe Illustrator 29.1.0, SVG Export Plug-In . SVG Version: 2.1.0 Build 142)  -->
  <defs>
    <style>
      .st0 {
        fill: #212d45;
      }

      .st1 {
        fill: #78d0e9;
      }

      .st2 {
        fill: none;
        stroke: #fff;
        stroke-dasharray: 6;
        stroke-miterlimit: 10;
        stroke-width: 2px;
      }

      .st3, .st4 {
        fill: #fff;
      }

      .st3, .st5, .st6, .st7, .st8 {
        fill-rule: evenodd;
      }

      .st9 {
        fill: url(#linear-gradient2);
      }

      .st10 {
        fill: url(#linear-gradient1);
      }

      .st11 {
        fill: url(#linear-gradient3);
      }

      .st12 {
        mix-blend-mode: multiply;
        opacity: .5;
      }

      .st13 {
        fill: #01c201;
      }

      .st14 {
        fill: url(#linear-gradient);
      }

      .st15 {
        isolation: isolate;
      }

      .st16 {
        fill: #0274b3;
      }

      .st17 {
        fill: #3b487a;
      }

      .st18 {
        fill: #231f20;
        opacity: .8;
      }

      .st5 {
        fill: url(#linear-gradient7);
      }

      .st6 {
        fill: url(#linear-gradient4);
      }

      .st7 {
        fill: url(#linear-gradient5);
      }

      .st8 {
        fill: url(#linear-gradient6);
      }

      .st19 {
        fill: #f09d65;
      }

      .st20 {
        fill: #f51414;
      }
    </style>
    <linearGradient id="linear-gradient" x1="1098" y1="408.8" x2="1209.3" y2="291.6" gradientUnits="userSpaceOnUse">
      <stop offset="0" stop-color="#0f7d00"/>
      <stop offset=".5" stop-color="#2fbc1d"/>
      <stop offset="1" stop-color="#95ff88"/>
    </linearGradient>
    <linearGradient id="linear-gradient1" x1="748" y1="437.9" x2="892.7" y2="291.1" gradientUnits="userSpaceOnUse">
      <stop offset="0" stop-color="#2597b8"/>
      <stop offset=".5" stop-color="#78d0e9"/>
      <stop offset="1" stop-color="#e9e9e9"/>
    </linearGradient>
    <linearGradient id="linear-gradient2" x1="442.9" y1="415.1" x2="567.4" y2="298.6" gradientTransform="translate(100.6 -110.2) rotate(13.9)" gradientUnits="userSpaceOnUse">
      <stop offset="0" stop-color="#004d78"/>
      <stop offset=".5" stop-color="#0274b3"/>
      <stop offset="1" stop-color="#59b2e3"/>
    </linearGradient>
    <linearGradient id="linear-gradient3" x1="138" y1="408.9" x2="242.3" y2="289.7" gradientTransform="translate(161.6 -43.1) rotate(24)" gradientUnits="userSpaceOnUse">
      <stop offset="0" stop-color="#8a0000"/>
      <stop offset=".5" stop-color="red"/>
      <stop offset="1" stop-color="#ff8c8c"/>
    </linearGradient>
    <linearGradient id="linear-gradient4" x1="455.1" y1="359.6" x2="548.7" y2="359.6" gradientUnits="userSpaceOnUse">
      <stop offset="0" stop-color="#0f3c4e"/>
      <stop offset="1" stop-color="#165463"/>
    </linearGradient>
    <linearGradient id="linear-gradient5" x1="781.7" y1="362.4" x2="875.4" y2="362.4" xlink:href="#linear-gradient4"/>
    <linearGradient id="linear-gradient6" x1="1183" y1="359.6" x2="1276.6" y2="359.6" gradientTransform="translate(-84.8)" xlink:href="#linear-gradient4"/>
    <linearGradient id="linear-gradient7" x1="130.3" y1="356.6" x2="223.9" y2="356.6" xlink:href="#linear-gradient4"/>
  </defs>
  <g class="st15">
    <g id="Layer_1">
      <rect class="st17" x="0" width="1327.4" height="708.8"/>
      <line class="st2" x1="176.2" y1="352.3" x2="1140.1" y2="352.3"/>
      <line class="st2" x1="176.2" y1="352.3" x2="176.2" y2="149.3"/>
      <line class="st2" x1="822.1" y1="352.3" x2="822.1" y2="149.3"/>
      <line class="st2" x1="498.9" y1="609.1" x2="498.9" y2="406"/>
      <line class="st2" x1="1145.1" y1="609.1" x2="1145.1" y2="406"/>
      <g>
        <g>
          <g>
            <path class="st4" d="M230,56.4v-17.5h1.7v17.5h-1.7Z"/>
            <path class="st4" d="M244.5,54.7l-.4-2.3v-13.5c-.1,0,1.5,0,1.5,0v16.3c0,.4-.1.7-.3.9-.2.2-.5.3-.8.3-.5,0-.9-.3-1.1-.8-.6-1.4-1.1-2.9-1.8-4.6-.6-1.7-1.4-3.6-2.2-5.7-.8-2.1-1.4-3.7-1.7-4.6l.3,2.6v13.1h-1.6v-16.3c0-.4,0-.7.3-.9.2-.2.5-.4.9-.4s.5,0,.7.2c.2.2.4.4.4.6h0s5.7,15.1,5.7,15.1Z"/>
            <path class="st4" d="M257.9,40.5h-6v6.1h5.6v1.6h-5.6v8.2h-1.6v-16.1c0-.4.1-.7.4-1,.3-.3.6-.4,1-.4h6.2v1.6Z"/>
            <path class="st4" d="M262.4,42.8c0-1.3.5-2.3,1.4-3,.9-.7,2-1.1,3.2-1.1s2.3.4,3.2,1.1c.9.7,1.4,1.7,1.4,3v9.6c0,1.3-.5,2.3-1.4,3-.9.7-2,1.1-3.2,1.1s-2.3-.4-3.2-1.1c-.9-.7-1.4-1.7-1.4-3v-9.6ZM264,52.4c0,.8.3,1.4.9,1.8.6.4,1.3.7,2.1.7s1.5-.2,2.1-.7c.6-.4.9-1.1.9-1.8v-9.6c0-.8-.3-1.4-.9-1.8-.6-.4-1.3-.7-2.1-.7s-1.5.2-2.1.7c-.6.4-.9,1-.9,1.8v9.6Z"/>
            <path class="st4" d="M280.9,46.7h3.2c.4,0,.8.1,1,.4.3.2.4.6.4,1v4.4c0,1.3-.5,2.3-1.4,3-.9.7-2,1.1-3.2,1.1s-2.4-.4-3.3-1.1c-.9-.7-1.4-1.8-1.4-3.1v-9.6c0-1.3.5-2.3,1.4-3,.9-.7,2-1.1,3.3-1.1s2.3.4,3.2,1.2c.9.8,1.4,1.9,1.4,3.4h-1.7c0-.9-.3-1.6-.9-2.2-.6-.5-1.3-.8-2.1-.8s-1.5.2-2.1.7c-.6.4-.9,1.1-.9,1.8v9.6c0,.8.3,1.4.9,1.9.6.5,1.3.7,2.1.7s1.5-.2,2.1-.7c.6-.4.9-1,.9-1.8v-4.1h-3v-1.6Z"/>
            <path class="st4" d="M290.5,39.2c.3-.3.6-.4,1-.4h3.5c1.2,0,2.1.4,2.9,1.1.8.8,1.1,1.7,1.1,2.9v2.7c0,.7-.3,1.3-.8,2-.5.7-1.2,1.1-1.9,1.2.8.1,1.4.5,2,1.2.5.7.8,1.4.8,2.1v4.4h-1.6v-4.4c0-.7-.3-1.2-.9-1.7-.6-.5-1.3-.7-2-.7h-2.9v6.8h-1.6v-16.1c0-.4.1-.8.4-1.1ZM291.7,40.5h0s0,0-.1,0h.1ZM291.7,40.5v7.5h2.9c.7,0,1.3-.2,1.9-.7.6-.5.9-1,.9-1.7v-2.7c0-.7-.2-1.2-.7-1.7-.5-.5-1-.7-1.7-.7h-3.3Z"/>
            <path class="st4" d="M311.2,50.2h-4.7c-.9,3.6-1.5,5.7-1.6,6.2h-1.7l4.2-16.5c.1-.4.3-.7.6-.9.3-.2.6-.3.9-.3s.6.1.9.3c.3.2.5.5.6.9l4.3,16.5h-1.8l-1.6-6.2ZM308.9,40.4l-2.1,8.2h3.9l-1.9-8.2ZM308.9,40.2v.2c0,0,0,0,0-.1h0Z"/>
            <path class="st4" d="M323.5,38.9c1.1,0,2,.4,2.8,1.2.8.8,1.2,1.8,1.2,2.8v2.6c0,1.1-.4,2-1.2,2.8-.8.8-1.7,1.2-2.8,1.2h-3.4v6.9h-1.6v-16.1c0-.4.1-.7.4-1,.3-.3.6-.4,1-.4h3.6ZM320.1,47.9h3.4c.6,0,1.2-.2,1.6-.7.5-.5.7-1,.7-1.7v-2.6c0-.7-.2-1.2-.7-1.7-.5-.5-1-.7-1.6-.7h-3.4v7.4Z"/>
            <path class="st4" d="M338.5,56.4v-7.9h-5.4v7.9h-1.6v-17.5h1.6v8.1h5.4v-8.1h1.6v17.5h-1.6Z"/>
            <path class="st4" d="M344.9,56.4v-17.5h1.7v17.5h-1.7Z"/>
            <path class="st4" d="M360.6,52c0,1.4-.5,2.6-1.4,3.4-.9.8-2,1.2-3.2,1.2s-2.4-.4-3.3-1.1c-.9-.7-1.4-1.8-1.4-3.1v-9.6c0-1.3.4-2.3,1.3-3.1.9-.7,2-1.1,3.2-1.1s2.3.4,3.2,1.2c.9.8,1.4,1.9,1.4,3.4h-1.7c0-.9-.3-1.6-.9-2.2-.6-.5-1.3-.8-2.1-.8s-1.5.2-2.1.7c-.6.5-.9,1.1-.9,1.9v9.6c0,.8.3,1.4.9,1.9.6.5,1.3.7,2.1.7s1.5-.3,2.1-.8c.6-.5.9-1.3.9-2.2h1.7Z"/>
          </g>
          <g>
            <path class="st4" d="M245.5,82.8c0,2.8,0,4.7-.2,5.9-.1,1.2-.5,2.2-1.2,3.2-.7,1-1.6,1.7-2.8,2.2-1.2.5-2.5.8-4.1.8s-2.8-.2-4-.7c-1.2-.5-2.1-1.2-2.8-2.2-.7-1-1.1-2-1.3-3.2-.1-1.1-.2-3.1-.2-6v-4.7c0-2.8,0-4.7.2-5.9.1-1.2.5-2.2,1.2-3.2.7-1,1.6-1.7,2.8-2.2,1.2-.5,2.5-.8,4.1-.8s2.8.2,4,.7c1.2.5,2.1,1.2,2.8,2.2.7,1,1.1,2,1.3,3.2.1,1.1.2,3.1.2,6v4.7ZM238.3,73.7c0-1.3,0-2.1-.2-2.5-.1-.4-.4-.5-.9-.5s-.7.1-.9.4c-.2.3-.3,1.1-.3,2.6v12.9c0,1.6,0,2.6.2,3,.1.4.4.6.9.6s.8-.2.9-.6c.1-.4.2-1.5.2-3.1v-12.7Z"/>
            <path class="st4" d="M255.2,66.6h7.2c2,0,3.5.2,4.5.5,1.1.3,1.8.8,2.4,1.3.5.6.9,1.3,1.1,2.1.2.8.3,2.1.3,3.8v2.4c0,1.8-.2,3.1-.5,3.9-.4.8-1,1.4-2,1.9-1,.4-2.2.6-3.8.6h-1.9v11.1h-7.2v-27.7ZM262.4,71.3v7c.2,0,.4,0,.5,0,.7,0,1.1-.2,1.4-.5.3-.3.4-1,.4-2v-2.3c0-.9-.1-1.6-.4-1.8-.3-.3-.9-.4-1.8-.4Z"/>
            <path class="st4" d="M294.3,66.6v5.5h-4.3v22.1h-7.2v-22.1h-4.3v-5.5h15.7Z"/>
            <path class="st4" d="M310.1,66.6v27.7h-7.2v-27.7h7.2Z"/>
            <path class="st4" d="M336.4,82.8c0,2.8,0,4.7-.2,5.9-.1,1.2-.5,2.2-1.2,3.2-.7,1-1.6,1.7-2.8,2.2-1.2.5-2.5.8-4.1.8s-2.8-.2-4-.7c-1.2-.5-2.1-1.2-2.8-2.2-.7-1-1.1-2-1.3-3.2-.1-1.1-.2-3.1-.2-6v-4.7c0-2.8,0-4.7.2-5.9.1-1.2.5-2.2,1.2-3.2.7-1,1.6-1.7,2.8-2.2,1.2-.5,2.5-.8,4.1-.8s2.8.2,4,.7c1.2.5,2.1,1.2,2.8,2.2.7,1,1.1,2,1.3,3.2.1,1.1.2,3.1.2,6v4.7ZM329.2,73.7c0-1.3,0-2.1-.2-2.5-.1-.4-.4-.5-.9-.5s-.7.1-.9.4c-.2.3-.3,1.1-.3,2.6v12.9c0,1.6,0,2.6.2,3,.1.4.4.6.9.6s.8-.2.9-.6c.1-.4.2-1.5.2-3.1v-12.7Z"/>
            <path class="st4" d="M362.2,66.6v27.7h-6.3l-3.7-12.6v12.6h-6v-27.7h6l4,12.5v-12.5h6Z"/>
          </g>
        </g>
        <g>
          <rect class="st4" x="227.6" y="128.9" width="193.5" height="1"/>
          <rect class="st4" x="227.6" y="125.2" width="101.2" height="1"/>
          <rect class="st4" x="337.5" y="121.5" width="83.7" height="1"/>
          <rect class="st4" x="227.6" y="117.9" width="47.3" height="1"/>
          <rect class="st4" x="283.3" y="114.2" width="137.9" height="1"/>
          <rect class="st4" x="227.6" y="110.5" width="193.5" height="1"/>
          <rect class="st4" x="227.6" y="106.8" width="141.9" height="1"/>
          <rect class="st4" x="379.3" y="106.8" width="41.9" height="1"/>
          <rect class="st4" x="227.6" y="140" width="193.5" height="1"/>
          <rect class="st4" x="292.7" y="136.3" width="128.5" height="1"/>
          <rect class="st4" x="227.6" y="132.6" width="57.9" height="1"/>
        </g>
      </g>
      <g>
        <g>
          <g>
            <path class="st4" d="M230,556.3v-17.5h1.7v17.5h-1.7Z"/>
            <path class="st4" d="M244.5,554.6l-.4-2.3v-13.5c-.1,0,1.5,0,1.5,0v16.3c0,.4-.1.7-.3.9-.2.2-.5.3-.8.3-.5,0-.9-.3-1.1-.8-.6-1.4-1.1-2.9-1.8-4.6-.6-1.7-1.4-3.6-2.2-5.7-.8-2.1-1.4-3.7-1.7-4.6l.3,2.6v13.1h-1.6v-16.3c0-.4,0-.7.3-.9.2-.2.5-.4.9-.4s.5,0,.7.2c.2.2.4.4.4.6h0s5.7,15.1,5.7,15.1Z"/>
            <path class="st4" d="M257.9,540.4h-6v6.1h5.6v1.6h-5.6v8.2h-1.6v-16.1c0-.4.1-.7.4-1,.3-.3.6-.4,1-.4h6.2v1.6Z"/>
            <path class="st4" d="M262.4,542.7c0-1.3.5-2.3,1.4-3,.9-.7,2-1.1,3.2-1.1s2.3.4,3.2,1.1c.9.7,1.4,1.7,1.4,3v9.6c0,1.3-.5,2.3-1.4,3-.9.7-2,1.1-3.2,1.1s-2.3-.4-3.2-1.1c-.9-.7-1.4-1.7-1.4-3v-9.6ZM264,552.3c0,.8.3,1.4.9,1.8.6.4,1.3.7,2.1.7s1.5-.2,2.1-.7c.6-.4.9-1.1.9-1.8v-9.6c0-.8-.3-1.4-.9-1.8-.6-.4-1.3-.7-2.1-.7s-1.5.2-2.1.7c-.6.4-.9,1-.9,1.8v9.6Z"/>
            <path class="st4" d="M280.9,546.7h3.2c.4,0,.8.1,1,.4.3.2.4.6.4,1v4.4c0,1.3-.5,2.3-1.4,3-.9.7-2,1.1-3.2,1.1s-2.4-.4-3.3-1.1c-.9-.7-1.4-1.8-1.4-3.1v-9.6c0-1.3.5-2.3,1.4-3,.9-.7,2-1.1,3.3-1.1s2.3.4,3.2,1.2c.9.8,1.4,1.9,1.4,3.4h-1.7c0-.9-.3-1.6-.9-2.2-.6-.5-1.3-.8-2.1-.8s-1.5.2-2.1.7c-.6.4-.9,1.1-.9,1.8v9.6c0,.8.3,1.4.9,1.9.6.5,1.3.7,2.1.7s1.5-.2,2.1-.7c.6-.4.9-1,.9-1.8v-4.1h-3v-1.6Z"/>
            <path class="st4" d="M290.5,539.2c.3-.3.6-.4,1-.4h3.5c1.2,0,2.1.4,2.9,1.1.8.8,1.1,1.7,1.1,2.9v2.7c0,.7-.3,1.3-.8,2-.5.7-1.2,1.1-1.9,1.2.8.1,1.4.5,2,1.2.5.7.8,1.4.8,2.1v4.4h-1.6v-4.4c0-.7-.3-1.2-.9-1.7-.6-.5-1.3-.7-2-.7h-2.9v6.8h-1.6v-16.1c0-.4.1-.8.4-1.1ZM291.7,540.4h0s0,0-.1,0h.1ZM291.7,540.4v7.5h2.9c.7,0,1.3-.2,1.9-.7.6-.5.9-1,.9-1.7v-2.7c0-.7-.2-1.2-.7-1.7-.5-.5-1-.7-1.7-.7h-3.3Z"/>
            <path class="st4" d="M311.2,550.2h-4.7c-.9,3.6-1.5,5.7-1.6,6.2h-1.7l4.2-16.5c.1-.4.3-.7.6-.9.3-.2.6-.3.9-.3s.6.1.9.3c.3.2.5.5.6.9l4.3,16.5h-1.8l-1.6-6.2ZM308.9,540.4l-2.1,8.2h3.9l-1.9-8.2ZM308.9,540.1v.2c0,0,0,0,0-.1h0Z"/>
            <path class="st4" d="M323.5,538.8c1.1,0,2,.4,2.8,1.2.8.8,1.2,1.8,1.2,2.8v2.6c0,1.1-.4,2-1.2,2.8-.8.8-1.7,1.2-2.8,1.2h-3.4v6.9h-1.6v-16.1c0-.4.1-.7.4-1,.3-.3.6-.4,1-.4h3.6ZM320.1,547.8h3.4c.6,0,1.2-.2,1.6-.7.5-.5.7-1,.7-1.7v-2.6c0-.7-.2-1.2-.7-1.7-.5-.5-1-.7-1.6-.7h-3.4v7.4Z"/>
            <path class="st4" d="M338.5,556.3v-7.9h-5.4v7.9h-1.6v-17.5h1.6v8.1h5.4v-8.1h1.6v17.5h-1.6Z"/>
            <path class="st4" d="M344.9,556.3v-17.5h1.7v17.5h-1.7Z"/>
            <path class="st4" d="M360.6,551.9c0,1.4-.5,2.6-1.4,3.4-.9.8-2,1.2-3.2,1.2s-2.4-.4-3.3-1.1c-.9-.7-1.4-1.8-1.4-3.1v-9.6c0-1.3.4-2.3,1.3-3.1.9-.7,2-1.1,3.2-1.1s2.3.4,3.2,1.2c.9.8,1.4,1.9,1.4,3.4h-1.7c0-.9-.3-1.6-.9-2.2-.6-.5-1.3-.8-2.1-.8s-1.5.2-2.1.7c-.6.5-.9,1.1-.9,1.9v9.6c0,.8.3,1.4.9,1.9.6.5,1.3.7,2.1.7s1.5-.3,2.1-.8c.6-.5.9-1.3.9-2.2h1.7Z"/>
          </g>
          <g>
            <path class="st4" d="M245.5,582.7c0,2.8,0,4.7-.2,5.9-.1,1.2-.5,2.2-1.2,3.2-.7,1-1.6,1.7-2.8,2.2-1.2.5-2.5.8-4.1.8s-2.8-.2-4-.7c-1.2-.5-2.1-1.2-2.8-2.2-.7-1-1.1-2-1.3-3.2-.1-1.1-.2-3.1-.2-6v-4.7c0-2.8,0-4.7.2-5.9.1-1.2.5-2.2,1.2-3.2.7-1,1.6-1.7,2.8-2.2,1.2-.5,2.5-.8,4.1-.8s2.8.2,4,.7c1.2.5,2.1,1.2,2.8,2.2.7,1,1.1,2,1.3,3.2.1,1.1.2,3.1.2,6v4.7ZM238.3,573.6c0-1.3,0-2.1-.2-2.5-.1-.4-.4-.5-.9-.5s-.7.1-.9.4c-.2.3-.3,1.1-.3,2.6v12.9c0,1.6,0,2.6.2,3,.1.4.4.6.9.6s.8-.2.9-.6c.1-.4.2-1.5.2-3.1v-12.7Z"/>
            <path class="st4" d="M255.2,566.5h7.2c2,0,3.5.2,4.5.5,1.1.3,1.8.8,2.4,1.3.5.6.9,1.3,1.1,2.1.2.8.3,2.1.3,3.8v2.4c0,1.8-.2,3.1-.5,3.9-.4.8-1,1.4-2,1.9-1,.4-2.2.6-3.8.6h-1.9v11.1h-7.2v-27.7ZM262.4,571.2v7c.2,0,.4,0,.5,0,.7,0,1.1-.2,1.4-.5.3-.3.4-1,.4-2v-2.3c0-.9-.1-1.6-.4-1.8-.3-.3-.9-.4-1.8-.4Z"/>
            <path class="st4" d="M294.3,566.5v5.5h-4.3v22.1h-7.2v-22.1h-4.3v-5.5h15.7Z"/>
            <path class="st4" d="M310.1,566.5v27.7h-7.2v-27.7h7.2Z"/>
            <path class="st4" d="M336.4,582.7c0,2.8,0,4.7-.2,5.9-.1,1.2-.5,2.2-1.2,3.2-.7,1-1.6,1.7-2.8,2.2-1.2.5-2.5.8-4.1.8s-2.8-.2-4-.7c-1.2-.5-2.1-1.2-2.8-2.2-.7-1-1.1-2-1.3-3.2-.1-1.1-.2-3.1-.2-6v-4.7c0-2.8,0-4.7.2-5.9.1-1.2.5-2.2,1.2-3.2.7-1,1.6-1.7,2.8-2.2,1.2-.5,2.5-.8,4.1-.8s2.8.2,4,.7c1.2.5,2.1,1.2,2.8,2.2.7,1,1.1,2,1.3,3.2.1,1.1.2,3.1.2,6v4.7ZM329.2,573.6c0-1.3,0-2.1-.2-2.5-.1-.4-.4-.5-.9-.5s-.7.1-.9.4c-.2.3-.3,1.1-.3,2.6v12.9c0,1.6,0,2.6.2,3,.1.4.4.6.9.6s.8-.2.9-.6c.1-.4.2-1.5.2-3.1v-12.7Z"/>
            <path class="st4" d="M362.2,566.5v27.7h-6.3l-3.7-12.6v12.6h-6v-27.7h6l4,12.5v-12.5h6Z"/>
          </g>
        </g>
        <g>
          <rect class="st4" x="227.6" y="628.8" width="193.5" height="1"/>
          <rect class="st4" x="227.6" y="625.1" width="101.2" height="1"/>
          <rect class="st4" x="337.5" y="621.5" width="83.7" height="1"/>
          <rect class="st4" x="227.6" y="617.8" width="47.3" height="1"/>
          <rect class="st4" x="283.3" y="614.1" width="137.9" height="1"/>
          <rect class="st4" x="227.6" y="610.4" width="193.5" height="1"/>
          <rect class="st4" x="227.6" y="606.7" width="141.9" height="1"/>
          <rect class="st4" x="379.3" y="606.7" width="41.9" height="1"/>
          <rect class="st4" x="227.6" y="639.9" width="193.5" height="1"/>
          <rect class="st4" x="292.7" y="636.2" width="128.5" height="1"/>
          <rect class="st4" x="227.6" y="632.5" width="57.9" height="1"/>
        </g>
      </g>
      <g>
        <g>
          <g>
            <path class="st4" d="M908.7,556.3v-17.5h1.7v17.5h-1.7Z"/>
            <path class="st4" d="M923.3,554.6l-.4-2.3v-13.5c-.1,0,1.5,0,1.5,0v16.3c0,.4-.1.7-.3.9-.2.2-.5.3-.8.3-.5,0-.9-.3-1.1-.8-.6-1.4-1.1-2.9-1.8-4.6-.6-1.7-1.4-3.6-2.2-5.7-.8-2.1-1.4-3.7-1.7-4.6l.3,2.6v13.1h-1.6v-16.3c0-.4,0-.7.3-.9.2-.2.5-.4.9-.4s.5,0,.7.2c.2.2.4.4.4.6h0s5.7,15.1,5.7,15.1Z"/>
            <path class="st4" d="M936.6,540.4h-6v6.1h5.6v1.6h-5.6v8.2h-1.6v-16.1c0-.4.1-.7.4-1,.3-.3.6-.4,1-.4h6.2v1.6Z"/>
            <path class="st4" d="M941.1,542.7c0-1.3.5-2.3,1.4-3,.9-.7,2-1.1,3.2-1.1s2.3.4,3.2,1.1c.9.7,1.4,1.7,1.4,3v9.6c0,1.3-.5,2.3-1.4,3-.9.7-2,1.1-3.2,1.1s-2.3-.4-3.2-1.1c-.9-.7-1.4-1.7-1.4-3v-9.6ZM942.7,552.3c0,.8.3,1.4.9,1.8.6.4,1.3.7,2.1.7s1.5-.2,2.1-.7c.6-.4.9-1.1.9-1.8v-9.6c0-.8-.3-1.4-.9-1.8-.6-.4-1.3-.7-2.1-.7s-1.5.2-2.1.7c-.6.4-.9,1-.9,1.8v9.6Z"/>
            <path class="st4" d="M959.6,546.7h3.2c.4,0,.8.1,1,.4.3.2.4.6.4,1v4.4c0,1.3-.5,2.3-1.4,3-.9.7-2,1.1-3.2,1.1s-2.4-.4-3.3-1.1c-.9-.7-1.4-1.8-1.4-3.1v-9.6c0-1.3.5-2.3,1.4-3,.9-.7,2-1.1,3.3-1.1s2.3.4,3.2,1.2c.9.8,1.4,1.9,1.4,3.4h-1.7c0-.9-.3-1.6-.9-2.2-.6-.5-1.3-.8-2.1-.8s-1.5.2-2.1.7c-.6.4-.9,1.1-.9,1.8v9.6c0,.8.3,1.4.9,1.9.6.5,1.3.7,2.1.7s1.5-.2,2.1-.7c.6-.4.9-1,.9-1.8v-4.1h-3v-1.6Z"/>
            <path class="st4" d="M969.2,539.2c.3-.3.6-.4,1-.4h3.5c1.2,0,2.1.4,2.9,1.1.8.8,1.1,1.7,1.1,2.9v2.7c0,.7-.3,1.3-.8,2-.5.7-1.2,1.1-1.9,1.2.8.1,1.4.5,2,1.2.5.7.8,1.4.8,2.1v4.4h-1.6v-4.4c0-.7-.3-1.2-.9-1.7-.6-.5-1.3-.7-2-.7h-2.9v6.8h-1.6v-16.1c0-.4.1-.8.4-1.1ZM970.4,540.4h0s0,0-.1,0h.1ZM970.4,540.4v7.5h2.9c.7,0,1.3-.2,1.9-.7.6-.5.9-1,.9-1.7v-2.7c0-.7-.2-1.2-.7-1.7-.5-.5-1-.7-1.7-.7h-3.3Z"/>
            <path class="st4" d="M990,550.2h-4.7c-.9,3.6-1.5,5.7-1.6,6.2h-1.7l4.2-16.5c.1-.4.3-.7.6-.9.3-.2.6-.3.9-.3s.6.1.9.3c.3.2.5.5.6.9l4.3,16.5h-1.8l-1.6-6.2ZM987.7,540.4l-2.1,8.2h3.9l-1.9-8.2ZM987.6,540.1v.2s0,0,0-.1h0Z"/>
            <path class="st4" d="M1002.2,538.8c1.1,0,2,.4,2.8,1.2.8.8,1.2,1.8,1.2,2.8v2.6c0,1.1-.4,2-1.2,2.8-.8.8-1.7,1.2-2.8,1.2h-3.4v6.9h-1.6v-16.1c0-.4.1-.7.4-1,.3-.3.6-.4,1-.4h3.6ZM998.8,547.8h3.4c.6,0,1.2-.2,1.6-.7s.7-1,.7-1.7v-2.6c0-.7-.2-1.2-.7-1.7-.5-.5-1-.7-1.6-.7h-3.4v7.4Z"/>
            <path class="st4" d="M1017.3,556.3v-7.9h-5.4v7.9h-1.6v-17.5h1.6v8.1h5.4v-8.1h1.6v17.5h-1.6Z"/>
            <path class="st4" d="M1023.7,556.3v-17.5h1.7v17.5h-1.7Z"/>
            <path class="st4" d="M1039.3,551.9c0,1.4-.5,2.6-1.4,3.4-.9.8-2,1.2-3.2,1.2s-2.4-.4-3.3-1.1c-.9-.7-1.4-1.8-1.4-3.1v-9.6c0-1.3.4-2.3,1.3-3.1.9-.7,2-1.1,3.2-1.1s2.3.4,3.2,1.2c.9.8,1.4,1.9,1.4,3.4h-1.7c0-.9-.3-1.6-.9-2.2-.6-.5-1.3-.8-2.1-.8s-1.5.2-2.1.7c-.6.5-.9,1.1-.9,1.9v9.6c0,.8.3,1.4.9,1.9.6.5,1.3.7,2.1.7s1.5-.3,2.1-.8c.6-.5.9-1.3.9-2.2h1.7Z"/>
          </g>
          <g>
            <path class="st4" d="M924.3,582.7c0,2.8,0,4.7-.2,5.9-.1,1.2-.5,2.2-1.2,3.2-.7,1-1.6,1.7-2.8,2.2-1.2.5-2.5.8-4.1.8s-2.8-.2-4-.7c-1.2-.5-2.1-1.2-2.8-2.2-.7-1-1.1-2-1.3-3.2-.1-1.1-.2-3.1-.2-6v-4.7c0-2.8,0-4.7.2-5.9.1-1.2.5-2.2,1.2-3.2.7-1,1.6-1.7,2.8-2.2,1.2-.5,2.5-.8,4.1-.8s2.8.2,4,.7c1.2.5,2.1,1.2,2.8,2.2.7,1,1.1,2,1.3,3.2.1,1.1.2,3.1.2,6v4.7ZM917.1,573.6c0-1.3,0-2.1-.2-2.5-.1-.4-.4-.5-.9-.5s-.7.1-.9.4c-.2.3-.3,1.1-.3,2.6v12.9c0,1.6,0,2.6.2,3,.1.4.4.6.9.6s.8-.2.9-.6c.1-.4.2-1.5.2-3.1v-12.7Z"/>
            <path class="st4" d="M933.9,566.5h7.2c2,0,3.5.2,4.5.5,1.1.3,1.8.8,2.4,1.3.5.6.9,1.3,1.1,2.1.2.8.3,2.1.3,3.8v2.4c0,1.8-.2,3.1-.5,3.9-.4.8-1,1.4-2,1.9-1,.4-2.2.6-3.8.6h-1.9v11.1h-7.2v-27.7ZM941.1,571.2v7c.2,0,.4,0,.5,0,.7,0,1.1-.2,1.4-.5.3-.3.4-1,.4-2v-2.3c0-.9-.1-1.6-.4-1.8-.3-.3-.9-.4-1.8-.4Z"/>
            <path class="st4" d="M973,566.5v5.5h-4.3v22.1h-7.2v-22.1h-4.3v-5.5h15.7Z"/>
            <path class="st4" d="M988.8,566.5v27.7h-7.2v-27.7h7.2Z"/>
            <path class="st4" d="M1015.2,582.7c0,2.8,0,4.7-.2,5.9-.1,1.2-.5,2.2-1.2,3.2-.7,1-1.6,1.7-2.8,2.2-1.2.5-2.5.8-4.1.8s-2.8-.2-4-.7c-1.2-.5-2.1-1.2-2.8-2.2-.7-1-1.1-2-1.3-3.2-.1-1.1-.2-3.1-.2-6v-4.7c0-2.8,0-4.7.2-5.9.1-1.2.5-2.2,1.2-3.2.7-1,1.6-1.7,2.8-2.2,1.2-.5,2.5-.8,4.1-.8s2.8.2,4,.7c1.2.5,2.1,1.2,2.8,2.2.7,1,1.1,2,1.3,3.2.1,1.1.2,3.1.2,6v4.7ZM1008,573.6c0-1.3,0-2.1-.2-2.5-.1-.4-.4-.5-.9-.5s-.7.1-.9.4c-.2.3-.3,1.1-.3,2.6v12.9c0,1.6,0,2.6.2,3,.1.4.4.6.9.6s.8-.2.9-.6c.1-.4.2-1.5.2-3.1v-12.7Z"/>
            <path class="st4" d="M1040.9,566.5v27.7h-6.3l-3.7-12.6v12.6h-6v-27.7h6l4,12.5v-12.5h6Z"/>
          </g>
        </g>
        <g>
          <rect class="st4" x="906.4" y="628.8" width="193.5" height="1"/>
          <rect class="st4" x="906.4" y="625.1" width="101.2" height="1"/>
          <rect class="st4" x="1016.2" y="621.5" width="83.7" height="1"/>
          <rect class="st4" x="906.4" y="617.8" width="47.3" height="1"/>
          <rect class="st4" x="962" y="614.1" width="137.9" height="1"/>
          <rect class="st4" x="906.4" y="610.4" width="193.5" height="1"/>
          <rect class="st4" x="906.4" y="606.7" width="141.9" height="1"/>
          <rect class="st4" x="1058.1" y="606.7" width="41.9" height="1"/>
          <rect class="st4" x="906.4" y="639.9" width="193.5" height="1"/>
          <rect class="st4" x="971.4" y="636.2" width="128.5" height="1"/>
          <rect class="st4" x="906.4" y="632.5" width="57.9" height="1"/>
        </g>
      </g>
      <g>
        <g>
          <g>
            <path class="st4" d="M880.9,56.4v-17.5h1.7v17.5h-1.7Z"/>
            <path class="st4" d="M895.4,54.7l-.4-2.3v-13.5c-.1,0,1.5,0,1.5,0v16.3c0,.4-.1.7-.3.9-.2.2-.5.3-.8.3-.5,0-.9-.3-1.1-.8-.6-1.4-1.1-2.9-1.8-4.6-.6-1.7-1.4-3.6-2.2-5.7-.8-2.1-1.4-3.7-1.7-4.6l.3,2.6v13.1h-1.6v-16.3c0-.4,0-.7.3-.9.2-.2.5-.4.9-.4s.5,0,.7.2c.2.2.4.4.4.6h0s5.7,15.1,5.7,15.1Z"/>
            <path class="st4" d="M908.8,40.5h-6v6.1h5.6v1.6h-5.6v8.2h-1.6v-16.1c0-.4.1-.7.4-1,.3-.3.6-.4,1-.4h6.2v1.6Z"/>
            <path class="st4" d="M913.3,42.8c0-1.3.5-2.3,1.4-3,.9-.7,2-1.1,3.2-1.1s2.3.4,3.2,1.1c.9.7,1.4,1.7,1.4,3v9.6c0,1.3-.5,2.3-1.4,3-.9.7-2,1.1-3.2,1.1s-2.3-.4-3.2-1.1c-.9-.7-1.4-1.7-1.4-3v-9.6ZM914.9,52.4c0,.8.3,1.4.9,1.8.6.4,1.3.7,2.1.7s1.5-.2,2.1-.7c.6-.4.9-1.1.9-1.8v-9.6c0-.8-.3-1.4-.9-1.8-.6-.4-1.3-.7-2.1-.7s-1.5.2-2.1.7c-.6.4-.9,1-.9,1.8v9.6Z"/>
            <path class="st4" d="M931.8,46.7h3.2c.4,0,.8.1,1,.4.3.2.4.6.4,1v4.4c0,1.3-.5,2.3-1.4,3-.9.7-2,1.1-3.2,1.1s-2.4-.4-3.3-1.1c-.9-.7-1.4-1.8-1.4-3.1v-9.6c0-1.3.5-2.3,1.4-3,.9-.7,2-1.1,3.3-1.1s2.3.4,3.2,1.2c.9.8,1.4,1.9,1.4,3.4h-1.7c0-.9-.3-1.6-.9-2.2-.6-.5-1.3-.8-2.1-.8s-1.5.2-2.1.7c-.6.4-.9,1.1-.9,1.8v9.6c0,.8.3,1.4.9,1.9.6.5,1.3.7,2.1.7s1.5-.2,2.1-.7c.6-.4.9-1,.9-1.8v-4.1h-3v-1.6Z"/>
            <path class="st4" d="M941.4,39.2c.3-.3.6-.4,1-.4h3.5c1.2,0,2.1.4,2.9,1.1.8.8,1.1,1.7,1.1,2.9v2.7c0,.7-.3,1.3-.8,2-.5.7-1.2,1.1-1.9,1.2.8.1,1.4.5,2,1.2.5.7.8,1.4.8,2.1v4.4h-1.6v-4.4c0-.7-.3-1.2-.9-1.7-.6-.5-1.3-.7-2-.7h-2.9v6.8h-1.6v-16.1c0-.4.1-.8.4-1.1ZM942.6,40.5h0s0,0-.1,0h.1ZM942.6,40.5v7.5h2.9c.7,0,1.3-.2,1.9-.7.6-.5.9-1,.9-1.7v-2.7c0-.7-.2-1.2-.7-1.7-.5-.5-1-.7-1.7-.7h-3.3Z"/>
            <path class="st4" d="M962.1,50.2h-4.7c-.9,3.6-1.5,5.7-1.6,6.2h-1.7l4.2-16.5c.1-.4.3-.7.6-.9.3-.2.6-.3.9-.3s.6.1.9.3c.3.2.5.5.6.9l4.3,16.5h-1.8l-1.6-6.2ZM959.9,40.4l-2.1,8.2h3.9l-1.9-8.2ZM959.8,40.2v.2s0,0,0-.1h0Z"/>
            <path class="st4" d="M974.4,38.9c1.1,0,2,.4,2.8,1.2.8.8,1.2,1.8,1.2,2.8v2.6c0,1.1-.4,2-1.2,2.8-.8.8-1.7,1.2-2.8,1.2h-3.4v6.9h-1.6v-16.1c0-.4.1-.7.4-1,.3-.3.6-.4,1-.4h3.6ZM971,47.9h3.4c.6,0,1.2-.2,1.6-.7.5-.5.7-1,.7-1.7v-2.6c0-.7-.2-1.2-.7-1.7-.5-.5-1-.7-1.6-.7h-3.4v7.4Z"/>
            <path class="st4" d="M989.4,56.4v-7.9h-5.4v7.9h-1.6v-17.5h1.6v8.1h5.4v-8.1h1.6v17.5h-1.6Z"/>
            <path class="st4" d="M995.8,56.4v-17.5h1.7v17.5h-1.7Z"/>
            <path class="st4" d="M1011.5,52c0,1.4-.5,2.6-1.4,3.4-.9.8-2,1.2-3.2,1.2s-2.4-.4-3.3-1.1c-.9-.7-1.4-1.8-1.4-3.1v-9.6c0-1.3.4-2.3,1.3-3.1.9-.7,2-1.1,3.2-1.1s2.3.4,3.2,1.2c.9.8,1.4,1.9,1.4,3.4h-1.7c0-.9-.3-1.6-.9-2.2-.6-.5-1.3-.8-2.1-.8s-1.5.2-2.1.7c-.6.5-.9,1.1-.9,1.9v9.6c0,.8.3,1.4.9,1.9.6.5,1.3.7,2.1.7s1.5-.3,2.1-.8c.6-.5.9-1.3.9-2.2h1.7Z"/>
          </g>
          <g>
            <path class="st4" d="M896.4,82.8c0,2.8,0,4.7-.2,5.9-.1,1.2-.5,2.2-1.2,3.2-.7,1-1.6,1.7-2.8,2.2-1.2.5-2.5.8-4.1.8s-2.8-.2-4-.7c-1.2-.5-2.1-1.2-2.8-2.2-.7-1-1.1-2-1.3-3.2-.1-1.1-.2-3.1-.2-6v-4.7c0-2.8,0-4.7.2-5.9.1-1.2.5-2.2,1.2-3.2.7-1,1.6-1.7,2.8-2.2,1.2-.5,2.5-.8,4.1-.8s2.8.2,4,.7c1.2.5,2.1,1.2,2.8,2.2.7,1,1.1,2,1.3,3.2.1,1.1.2,3.1.2,6v4.7ZM889.2,73.7c0-1.3,0-2.1-.2-2.5-.1-.4-.4-.5-.9-.5s-.7.1-.9.4c-.2.3-.3,1.1-.3,2.6v12.9c0,1.6,0,2.6.2,3,.1.4.4.6.9.6s.8-.2.9-.6c.1-.4.2-1.5.2-3.1v-12.7Z"/>
            <path class="st4" d="M906.1,66.6h7.2c2,0,3.5.2,4.5.5,1.1.3,1.8.8,2.4,1.3.5.6.9,1.3,1.1,2.1.2.8.3,2.1.3,3.8v2.4c0,1.8-.2,3.1-.5,3.9-.4.8-1,1.4-2,1.9-1,.4-2.2.6-3.8.6h-1.9v11.1h-7.2v-27.7ZM913.3,71.3v7c.2,0,.4,0,.5,0,.7,0,1.1-.2,1.4-.5.3-.3.4-1,.4-2v-2.3c0-.9-.1-1.6-.4-1.8-.3-.3-.9-.4-1.8-.4Z"/>
            <path class="st4" d="M945.2,66.6v5.5h-4.3v22.1h-7.2v-22.1h-4.3v-5.5h15.7Z"/>
            <path class="st4" d="M961,66.6v27.7h-7.2v-27.7h7.2Z"/>
            <path class="st4" d="M987.3,82.8c0,2.8,0,4.7-.2,5.9-.1,1.2-.5,2.2-1.2,3.2-.7,1-1.6,1.7-2.8,2.2-1.2.5-2.5.8-4.1.8s-2.8-.2-4-.7c-1.2-.5-2.1-1.2-2.8-2.2-.7-1-1.1-2-1.3-3.2-.1-1.1-.2-3.1-.2-6v-4.7c0-2.8,0-4.7.2-5.9.1-1.2.5-2.2,1.2-3.2.7-1,1.6-1.7,2.8-2.2,1.2-.5,2.5-.8,4.1-.8s2.8.2,4,.7c1.2.5,2.1,1.2,2.8,2.2.7,1,1.1,2,1.3,3.2.1,1.1.2,3.1.2,6v4.7ZM980.1,73.7c0-1.3,0-2.1-.2-2.5-.1-.4-.4-.5-.9-.5s-.7.1-.9.4c-.2.3-.3,1.1-.3,2.6v12.9c0,1.6,0,2.6.2,3,.1.4.4.6.9.6s.8-.2.9-.6c.1-.4.2-1.5.2-3.1v-12.7Z"/>
            <path class="st4" d="M1013.1,66.6v27.7h-6.3l-3.7-12.6v12.6h-6v-27.7h6l4,12.5v-12.5h6Z"/>
          </g>
        </g>
        <g>
          <rect class="st4" x="878.6" y="128.9" width="193.5" height="1"/>
          <rect class="st4" x="878.6" y="125.2" width="101.2" height="1"/>
          <rect class="st4" x="988.4" y="121.5" width="83.7" height="1"/>
          <rect class="st4" x="878.6" y="117.9" width="47.3" height="1"/>
          <rect class="st4" x="934.2" y="114.2" width="137.9" height="1"/>
          <rect class="st4" x="878.6" y="110.5" width="193.5" height="1"/>
          <rect class="st4" x="878.6" y="106.8" width="141.9" height="1"/>
          <rect class="st4" x="1030.2" y="106.8" width="41.9" height="1"/>
          <rect class="st4" x="878.6" y="140" width="193.5" height="1"/>
          <rect class="st4" x="943.6" y="136.3" width="128.5" height="1"/>
          <rect class="st4" x="878.6" y="132.6" width="57.9" height="1"/>
        </g>
      </g>
      <g>
        <circle class="st18" cx="1129.7" cy="375.7" r="122.6" transform="translate(65.2 908.9) rotate(-45)"/>
        <path class="st14" d="M1269.2,357.7c0,67.7-54.9,122.6-122.6,122.6s-122.6-54.9-122.6-122.6,54.9-122.6,122.6-122.6,122.6,54.9,122.6,122.6Z"/>
        <path class="st13" d="M1253.5,357.7c0,59.1-47.9,107-107,107s-107-47.9-107-107,47.9-107,107-107,107,47.9,107,107Z"/>
      </g>
      <g>
        <circle class="st18" cx="809.5" cy="376.5" r="122.6" transform="translate(-29.1 682.7) rotate(-45)"/>
        <path class="st10" d="M948.9,358.5c0,67.7-54.9,122.6-122.6,122.6s-122.6-54.9-122.6-122.6,54.9-122.6,122.6-122.6,122.6,54.9,122.6,122.6Z"/>
        <path class="st1" d="M933.3,358.5c0,59.1-47.9,107-107,107s-107-47.9-107-107,47.9-107,107-107,107,47.9,107,107Z"/>
      </g>
      <g>
        <circle class="st18" cx="486.5" cy="376.5" r="122.6" transform="translate(-123.7 454.3) rotate(-45)"/>
        <circle class="st9" cx="503.3" cy="358.5" r="122.6" transform="translate(-71.3 131.1) rotate(-13.9)"/>
        <path class="st16" d="M610.3,358.5c0,59.1-47.9,107-107,107s-107-47.9-107-107,47.9-107,107-107,107,47.9,107,107Z"/>
      </g>
      <g>
        <circle class="st18" cx="165.3" cy="376.5" r="122.6" transform="translate(-222.5 513.3) rotate(-85.7)"/>
        <circle class="st11" cx="182.1" cy="358.5" r="122.6" transform="translate(-130.1 105.1) rotate(-24)"/>
        <path class="st20" d="M289.1,358.5c0,59.1-47.9,107-107,107s-107-47.9-107-107,47.9-107,107-107,107,47.9,107,107Z"/>
      </g>
      <g>
        <g class="st12">
          <image width="578" height="595" transform="translate(432.4 288.9) scale(.2)" xlink:href="Infographic 09-1.png"/>
        </g>
        <path class="st3" d="M501.9,296c35.1,0,63.6,28.5,63.6,63.6s-28.5,63.6-63.6,63.6-63.6-28.5-63.6-63.6,28.5-63.6,63.6-63.6Z"/>
        <g class="st12">
          <image width="396" height="406" transform="translate(458.6 312.9) scale(.2)" xlink:href="Infographic 09-2.png"/>
        </g>
        <path class="st6" d="M501.9,312.8c25.8,0,46.8,21,46.8,46.8s-21,46.8-46.8,46.8-46.8-21-46.8-46.8,21-46.8,46.8-46.8Z"/>
        <path class="st4" d="M503.6,369.8h14.3v7.4h-29.5l11.1-14c3-3.8,5-6.4,5.9-7.8,2.4-3.6,3.6-6.4,3.6-8.6s-.5-3.4-1.4-4.8c-1.1-1.5-2.5-2.3-4.2-2.3s-3.2.8-4.2,2.5c-.9,1.5-1.3,3.1-1.2,5h-9c.3-4.4,1.7-7.9,4.1-10.6,2.6-2.9,6-4.3,10.3-4.3s7.5,1.3,10.2,4c2.7,2.7,4,6,4,10.1s-.8,5.8-2.3,8.6c-1.1,2-2.8,4.4-5.3,7.3l-6.4,7.5Z"/>
      </g>
      <g>
        <g class="st12">
          <image width="574" height="590" transform="translate(759.1 291.6) scale(.2)" xlink:href="Infographic 09-3.png"/>
        </g>
        <path class="st3" d="M828.5,298.9c35.1,0,63.6,28.5,63.6,63.6s-28.5,63.6-63.6,63.6-63.6-28.5-63.6-63.6,28.5-63.6,63.6-63.6Z"/>
        <g class="st12">
          <image width="396" height="406" transform="translate(785.2 315.8) scale(.2)" xlink:href="Infographic 09-4.png"/>
        </g>
        <path class="st7" d="M828.5,315.6c25.8,0,46.8,21,46.8,46.8s-21,46.8-46.8,46.8-46.8-21-46.8-46.8,21-46.8,46.8-46.8Z"/>
        <path class="st4" d="M825.1,347.8h-8.1c.4-3.9,1.7-6.9,4.1-9.2,2.3-2.3,5.4-3.4,9.3-3.4s6.9,1.1,9.2,3.3c2.3,2.2,3.4,5.2,3.4,9s-1.4,7.2-4.2,9.1c1.9.8,3.3,2.3,4.3,4.5.9,1.9,1.3,4,1.3,6.2,0,4.3-1.4,7.6-4.1,10.1-2.7,2.5-6.2,3.8-10.5,3.8s-7.4-1.3-10.1-3.9c-2.7-2.6-4.1-5.9-4.4-9.9h8.6c0,1.8.7,3.3,1.9,4.6,1.2,1.2,2.6,1.8,4.4,1.8s3.3-.7,4.3-2.2c1-1.3,1.5-3,1.5-4.8s-.5-3.5-1.6-4.9c-1.2-1.5-2.7-2.2-4.5-2.1h-1.6v-6h.9c3.7,0,5.6-2,5.6-6s-.4-2.9-1.3-4c-.9-1.1-2.1-1.6-3.7-1.6s-2.6.6-3.5,1.7c-.8,1-1.2,2.3-1.3,3.8Z"/>
      </g>
      <g>
        <g class="st12">
          <image width="575" height="591" transform="translate(1075.6 288.7) scale(.2)" xlink:href="Infographic 09-5.png"/>
        </g>
        <path class="st3" d="M1145.1,296c35.1,0,63.6,28.5,63.6,63.6s-28.5,63.6-63.6,63.6-63.6-28.5-63.6-63.6,28.5-63.6,63.6-63.6Z"/>
        <g class="st12">
          <image width="396" height="406" transform="translate(1101.8 312.9) scale(.2)" xlink:href="Infographic 09-6.png"/>
        </g>
        <path class="st8" d="M1145.1,312.8c25.8,0,46.8,21,46.8,46.8s-21,46.8-46.8,46.8-46.8-21-46.8-46.8,21-46.8,46.8-46.8Z"/>
        <path class="st4" d="M1157.5,362.6h4.6v6.8h-4.6v7.7h-8v-7.7h-19.3v-3.8l19.5-33h7.8v30ZM1149.5,362.6v-17.4l-9.3,17.4h9.3Z"/>
      </g>
      <g>
        <g class="st12">
          <image width="574" height="590" transform="translate(108.2 285.8) scale(.2)" xlink:href="Infographic 09-7.png"/>
        </g>
        <path class="st3" d="M177.1,293c35.1,0,63.6,28.5,63.6,63.6s-28.5,63.6-63.6,63.6-63.6-28.5-63.6-63.6,28.5-63.6,63.6-63.6Z"/>
        <g class="st12">
          <image width="395" height="407" transform="translate(133.9 309.8) scale(.2)" xlink:href="Infographic 09-8.png"/>
        </g>
        <path class="st5" d="M177.1,309.8c25.8,0,46.8,21,46.8,46.8s-21,46.8-46.8,46.8-46.8-21-46.8-46.8,21-46.8,46.8-46.8Z"/>
        <path class="st4" d="M176.2,337.9h-5.7v-7.4h14.3v43.7h-8.6v-36.3Z"/>
      </g>
      <g>
        <path class="st0" d="M861.4,138c0,21.7-17.6,39.3-39.3,39.3s-39.3-17.6-39.3-39.3,17.6-39.3,39.3-39.3,39.3,17.6,39.3,39.3Z"/>
        <g>
          <path class="st19" d="M822.5,115.2c-7.8,0-14.1,6.3-14.1,14.1s.7,5.1,2,7.3c.2.3.4.7.7,1h0c.3.5,2.9,4.2,4.1,8.9-.2.1-.4.3-.5.4-.6.6-1,1.4-1,2.3,0,.8.3,1.6.8,2.2-.6.6-.9,1.4-.9,2.2,0,.9.3,1.7.9,2.3.6.6,1.3.9,2.1,1,1,2.3,3.2,3.9,5.8,3.9s4.8-1.5,5.7-3.8c1.8,0,3.2-1.4,3.2-3.2,0-.8-.3-1.6-.8-2.2.6-.6.9-1.4.9-2.2,0-1.2-.6-2.3-1.7-2.9,1.2-4.8,3.8-8.4,4.1-8.8h0c.3-.4.5-.8.7-1.1,1.3-2.2,2-4.7,2-7.3,0-7.8-6.3-14.1-14.1-14.1ZM825.7,157.1c-.8,1-2,1.6-3.2,1.6s-2.5-.6-3.3-1.6h6.5ZM816.1,152.9c.2-.2.5-.3.8-.3h11.3c.6.1,1.1.6,1.1,1.2,0,.3-.1.6-.3.8-.2.2-.5.3-.8.3h-11.3c-.3,0-.6-.2-.8-.4-.2-.2-.3-.5-.3-.8,0-.3.1-.6.3-.8ZM828.3,150.5v.4h0v-.4s-11.3,0-11.3,0c-.3,0-.6-.1-.8-.3-.2-.2-.3-.5-.3-.8,0-.3.1-.6.3-.8.1-.1.3-.2.4-.3h11.7c.6,0,1.1.5,1.1,1.1,0,.6-.5,1.1-1.1,1.1ZM818.3,135.4c.5,0,.9.4.9.9v.9h-.9c-.5,0-.9-.4-.9-.9s.4-.9.9-.9ZM823.9,139.3v6.9h-2.6v-6.9h2.6ZM827.8,136.2c0,.5-.4.9-.9.9h-.9v-.9c0-.5.4-.9.9-.9s.9.4.9.9ZM832.1,136.5c-.5.7-3.2,4.6-4.4,9.6h-1.7v-6.9h.9c1.7,0,3-1.4,3-3s-1.4-3-3-3-3,1.4-3,3v.9h-2.6v-.9c0-1.7-1.4-3-3-3s-3,1.4-3,3,1.4,3,3,3h.9v6.8h-1.9c-1.3-5-3.9-8.9-4.4-9.6h0c-.2-.4-.4-.7-.6-1-1.1-1.9-1.7-4-1.7-6.2,0-6.6,5.4-12,12-12s12,5.4,12,12-.6,4.3-1.7,6.2h0c-.2.3-.4.6-.7,1Z"/>
          <path class="st19" d="M842.6,130.9h-3.6c-.6,0-1.1.5-1.1,1.1s.5,1.1,1.1,1.1h3.6c.6,0,1.1-.5,1.1-1.1s-.5-1.1-1.1-1.1Z"/>
          <path class="st19" d="M839.1,128.4c.2,0,.3,0,.5-.1l3.3-1.6c.3-.1.4-.4.5-.6,0-.3,0-.6,0-.8-.1-.3-.4-.4-.6-.5-.3,0-.6,0-.8,0l-3.3,1.6c-.3.1-.4.4-.5.6,0,.3,0,.6,0,.8.2.4.6.6,1,.6Z"/>
          <path class="st19" d="M841.6,137l-3.3-1.6c-.5-.3-1.2,0-1.4.5-.1.3-.2.5,0,.8,0,.3.3.5.5.6l3.2,1.6c.2,0,.3.1.5.1.4,0,.8-.2,1-.6.3-.5,0-1.2-.5-1.4Z"/>
          <path class="st19" d="M806.2,132c0-.6-.5-1.1-1.1-1.1h-3.6c-.6,0-1.1.5-1.1,1.1s.5,1.1,1.1,1.1h3.6c.6,0,1.1-.5,1.1-1.1Z"/>
          <path class="st19" d="M801.2,126.6l3.3,1.7c.2,0,.3.1.5.1.4,0,.8-.2,1-.6.1-.3.2-.5,0-.8,0-.3-.3-.5-.5-.6l-3.3-1.6c-.5-.3-1.2,0-1.4.5-.1.3-.2.5,0,.8,0,.3.3.5.5.6Z"/>
          <path class="st19" d="M805.8,135.3l-3.3,1.6c-.3.1-.4.4-.5.6,0,.3,0,.6,0,.8.2.4.6.6,1,.6s.3,0,.5-.1l3.3-1.6c.3-.1.4-.4.5-.6,0-.3,0-.6,0-.8-.3-.5-.9-.7-1.4-.5Z"/>
        </g>
      </g>
      <g>
        <circle class="st0" cx="495.4" cy="601.5" r="39.3"/>
        <g>
          <path class="st19" d="M502.5,599.2c1.2,0,2.5-.5,3.4-1.4.9-.9,1.4-2.1,1.4-3.4s-.5-2.5-1.4-3.4c-1.9-1.9-5-1.9-6.8,0-.9.9-1.4,2.1-1.4,3.4s.5,2.5,1.4,3.4c.9.9,2.2,1.4,3.4,1.4ZM500,594.3c0-.7.3-1.3.7-1.8.9-.9,2.6-.9,3.5,0,.5.5.7,1.1.7,1.8s-.3,1.3-.7,1.8c-.9.9-2.6.9-3.5,0-.5-.5-.7-1.1-.7-1.8Z"/>
          <path class="st19" d="M518.1,579.9c0-.3-.1-.6-.3-.8-.2-.2-.5-.4-.9-.3-.2,0-5.7.1-12.8,3.2-4.3,1.8-8.3,4.4-11.9,7.5-3.9-2-11.6-2.8-17.6,6.5-.1.2-.2.4-.2.6s0,.4.2.6c.2.4.7.6,1.1.6,1.6-.2,6-.2,8.1,1.3-.8,1.2-1.6,2.5-2.4,3.9,0,.2-.2.4-.2.6,0,.3.1.6.3.8l.4.4-2,4.6c0,.1,0,.3,0,.5,0,.3.1.6.3.8l6.1,6.1c.3.3.9.4,1.3.2l4.6-2,.4.4c.4.4.9.4,1.4.2,1.3-.7,2.6-1.5,3.8-2.4,1.4,2.2,1.3,6.5,1.2,8,0,.4.2.9.6,1.1.2.1.4.2.6.2s.4,0,.6-.2c9.1-5.9,8.4-13.6,6.5-17.5,10.4-11.9,10.7-24.6,10.7-24.7ZM490.2,591.1c-1.8,1.8-3.5,3.7-5.1,5.8-2.1-1.4-5.1-1.7-7.1-1.7,4.7-5.8,9.8-5,12.2-4.2ZM515.7,581.2c-.5,4.4-3,17.1-15.7,27.4h0c-1.9,1.6-4,3-6.2,4.3l-9.7-9.7c10.8-18.4,27.4-21.5,31.7-22ZM501,610.7c.2-.1.4-.3.6-.5.3-.2.6-.5.9-.8,1.1-1,2.2-1.9,3.1-2.9.9,2.5,1.7,7.5-4.2,12.2,0-2.1-.3-5.1-1.7-7.1.4-.3.8-.6,1.2-.9ZM490.5,613l-3,1.3-5-5,1.3-3,6.6,6.6Z"/>
          <path class="st19" d="M481.9,616.2c0-.3-.1-.6-.3-.8-.2-.2-.5-.3-.8-.3h0c-.3,0-.6.1-.8.3l-6.2,6.2c-.2.2-.3.5-.3.8s.1.6.3.8c.2.2.5.3.8.3h0c.3,0,.6-.1.8-.3l6.2-6.2c.2-.2.3-.5.3-.8Z"/>
          <path class="st19" d="M474.6,618.8l4.3-4.3c.2-.2.3-.5.3-.8s-.1-.6-.3-.8c-.2-.2-.5-.3-.8-.3h0c-.3,0-.6.1-.8.3l-4.3,4.3c-.2.2-.3.5-.3.8s.1.6.3.8c.2.2.5.3.8.3s.6-.1.8-.3Z"/>
          <path class="st19" d="M483.3,617.6h0c-.3,0-.6.1-.8.3l-4.3,4.3c-.2.2-.3.5-.3.8s.1.6.3.8c.2.2.5.3.8.3s.6-.1.8-.3l4.3-4.3c.2-.2.3-.5.3-.8s-.1-.6-.3-.8c-.2-.2-.5-.3-.8-.3Z"/>
        </g>
      </g>
      <g>
        <circle class="st0" cx="1144.7" cy="601.5" r="39.3"/>
        <g>
          <path class="st19" d="M1145.8,591.3v-1.8c0,0,.1,0,.2,0,.2,0,.3.2.5.2.6,0,.9-.6.9-1.1s-.6-1-1.6-1.2v-1.2c0-.6-.5-1.1-1.1-1.1s-1.1.5-1.1,1.1v1.3c-1.2.4-1.9,1.2-1.9,2.5s.9,2.1,1.9,2.6v2.2c-.2,0-.3-.2-.4-.3-.2-.2-.4-.4-.7-.4-.5,0-.9.6-.9,1.1,0,.7.9,1.4,2.1,1.7v.6c0,.6.5,1.1,1.1,1.1s1.1-.5,1.1-1.1v-.7c1.2-.4,1.8-1.4,1.8-2.7s-.9-2.3-1.8-2.8Z"/>
          <path class="st19" d="M1144.7,582.6c-5.4,0-9.7,4.4-9.7,9.7s4.4,9.7,9.7,9.7,9.7-4.4,9.7-9.7-4.4-9.7-9.7-9.7ZM1152.3,592.3c0,4.2-3.4,7.6-7.6,7.6s-7.6-3.4-7.6-7.6,3.4-7.6,7.6-7.6,7.6,3.4,7.6,7.6Z"/>
          <path class="st19" d="M1157.2,609.9c-.3,0-6.4-.8-10.4,3.1-.3.3-.7.7-1,1.1v-8.2c7.1-.6,12.6-6.5,12.6-13.6s-6.1-13.7-13.7-13.7-13.7,6.1-13.7,13.7,5.5,13.1,12.6,13.6v8.1c-.3-.4-.6-.7-.9-1-4-3.9-10.2-3.1-10.4-3.1-.5,0-.9.4-.9.9,0,.3-.8,6.4,3.1,10.4,2,2.1,4.8,3.1,8.5,3.1s1.2,0,1.8,0c.6,0,1.3,0,1.9,0,3.6,0,6.5-1,8.5-3.1,3.9-4,3.1-10.2,3.1-10.4,0-.5-.4-.9-.9-.9ZM1137.8,616.4c-.4.4-.4,1.1,0,1.5l4.3,4.3c-2.6-.1-4.7-.9-6.1-2.4-2.3-2.4-2.6-6-2.5-7.8,1.7,0,5.4.2,7.8,2.5,1.3,1.3,2.1,3.1,2.4,5.3v.7l-4.3-4.3c-.4-.4-1.1-.4-1.5,0ZM1156.2,592.3c0,6.4-5.2,11.5-11.5,11.5s-11.5-5.2-11.5-11.5,5.2-11.5,11.5-11.5,11.5,5.2,11.5,11.5ZM1151.7,617.9c.4-.4.4-1.1,0-1.5-.2-.2-.5-.3-.8-.3s-.6.1-.8.3l-4.3,4.3c0,0,0-.2,0-.3.2-2.5,1-4.5,2.4-5.9,2.4-2.3,6-2.6,7.8-2.5,0,1.8-.2,5.4-2.5,7.8-1.4,1.5-3.5,2.3-6.1,2.4l4.3-4.3Z"/>
        </g>
      </g>
      <g>
        <circle class="st0" cx="177.1" cy="138" r="39.3"/>
        <g>
          <path class="st19" d="M177.1,136c5.5,0,9.9-4.4,9.9-9.9s-4.4-9.9-9.9-9.9-9.9,4.4-9.9,9.9,4.4,9.9,9.9,9.9ZM177.1,118.4c4.3,0,7.7,3.5,7.7,7.7s-3.5,7.7-7.7,7.7-7.7-3.5-7.7-7.7,3.5-7.7,7.7-7.7Z"/>
          <path class="st19" d="M177.1,138.8c-11,0-19.9,8.9-19.9,19.9s.5,1.1,1.1,1.1h37.7c.6,0,1.1-.5,1.1-1.1,0-11-8.9-19.9-19.9-19.9ZM178.5,142.9h-2.8l-.8-1.8c1.4-.2,2.9-.2,4.3,0l-.8,1.8ZM175.9,145h2.4l2.3,12.6h-7l2.3-12.6ZM172.8,141.4l1.1,2.6-2.4,13.5h-12.1c.5-7.7,5.9-14.3,13.4-16.2ZM180.3,144.1l1.1-2.6c7.5,1.9,13,8.5,13.4,16.2h-12.1l-2.4-13.5Z"/>
        </g>
      </g>
      <g>
        <path class="st4" d="M48.2,375.7c-1.6-12.9-1.5-25.8.4-38.6.1-.8-1.1-1.1-1.2-.3-1.9,13-2.1,26-.4,39,0,.8,1.4.8,1.2,0h0Z"/>
        <path class="st4" d="M94.2,460.5c-5.2-4.5-10.1-9.3-14.6-14.4-.5-.6-1.4.3-.9.9,4.5,5.2,9.4,10,14.6,14.4.6.5,1.5-.4.9-.9h0Z"/>
        <path class="st4" d="M116.4,475.7c-5.8-3.2-11.3-6.8-16.5-10.7-.6-.5-1.3.6-.6,1.1,5.3,4,10.8,7.5,16.5,10.7.7.4,1.3-.7.6-1.1h0Z"/>
        <path class="st4" d="M198.4,491.5c-25.6,3.1-51.3-1.1-74.7-12-.7-.3-1.4.7-.6,1.1,23.5,11,49.5,15.3,75.3,12.2.8,0,.8-1.3,0-1.2h0Z"/>
        <path class="st4" d="M309.7,318.8c17.5,58.5-6.6,122-58.5,154.1-.7.4,0,1.5.6,1.1,52.3-32.4,76.7-96.4,59.1-155.5-.2-.8-1.4-.4-1.2.3h0Z"/>
        <path class="st4" d="M115.1,241.3c51.1-28.5,115.4-20.7,158.2,19.2.6.5,1.5-.3.9-.9-43.2-40.2-108.1-48.2-159.7-19.4-.7.4,0,1.5.6,1.1h0Z"/>
      </g>
      <g>
        <path class="st4" d="M368.8,375.7c-1.6-12.9-1.5-25.8.4-38.6.1-.8-1.1-1.1-1.2-.3-1.9,13-2.1,26-.4,39,0,.8,1.4.8,1.2,0h0Z"/>
        <path class="st4" d="M414.8,460.5c-5.2-4.5-10.1-9.3-14.6-14.4-.5-.6-1.4.3-.9.9,4.5,5.2,9.4,10,14.6,14.4.6.5,1.5-.4.9-.9h0Z"/>
        <path class="st4" d="M436.9,475.7c-5.8-3.2-11.3-6.8-16.5-10.7-.6-.5-1.3.6-.6,1.1,5.3,4,10.8,7.5,16.5,10.7.7.4,1.3-.7.6-1.1h0Z"/>
        <path class="st4" d="M519,491.5c-25.6,3.1-51.3-1.1-74.7-12-.7-.3-1.4.7-.6,1.1,23.5,11,49.5,15.3,75.3,12.2.8,0,.8-1.3,0-1.2h0Z"/>
        <path class="st4" d="M630.3,318.8c17.5,58.5-6.6,122-58.5,154.1-.7.4,0,1.5.6,1.1,52.3-32.4,76.7-96.4,59.1-155.5-.2-.8-1.4-.4-1.2.3h0Z"/>
        <path class="st4" d="M435.7,241.3c51.1-28.5,115.4-20.7,158.2,19.2.6.5,1.5-.3.9-.9-43.2-40.2-108.1-48.2-159.7-19.4-.7.4,0,1.5.6,1.1h0Z"/>
      </g>
      <g>
        <path class="st4" d="M689.4,375.7c-1.6-12.9-1.5-25.8.4-38.6.1-.8-1.1-1.1-1.2-.3-1.9,13-2.1,26-.4,39,0,.8,1.4.8,1.2,0h0Z"/>
        <path class="st4" d="M735.4,460.5c-5.2-4.5-10.1-9.3-14.6-14.4-.5-.6-1.4.3-.9.9,4.5,5.2,9.4,10,14.6,14.4.6.5,1.5-.4.9-.9h0Z"/>
        <path class="st4" d="M757.5,475.7c-5.8-3.2-11.3-6.8-16.5-10.7-.6-.5-1.3.6-.6,1.1,5.3,4,10.8,7.5,16.5,10.7.7.4,1.3-.7.6-1.1h0Z"/>
        <path class="st4" d="M839.6,491.5c-25.6,3.1-51.3-1.1-74.7-12-.7-.3-1.4.7-.6,1.1,23.5,11,49.5,15.3,75.3,12.2.8,0,.8-1.3,0-1.2h0Z"/>
        <path class="st4" d="M950.9,318.8c17.5,58.5-6.6,122-58.5,154.1-.7.4,0,1.5.6,1.1,52.3-32.4,76.7-96.4,59.1-155.5-.2-.8-1.4-.4-1.2.3h0Z"/>
        <path class="st4" d="M756.3,241.3c51.1-28.5,115.4-20.7,158.2,19.2.6.5,1.5-.3.9-.9-43.2-40.2-108.1-48.2-159.7-19.4-.7.4,0,1.5.6,1.1h0Z"/>
      </g>
      <g>
        <path class="st4" d="M1010,375.7c-1.6-12.9-1.5-25.8.4-38.6.1-.8-1.1-1.1-1.2-.3-1.9,13-2.1,26-.4,39,0,.8,1.3.8,1.2,0h0Z"/>
        <path class="st4" d="M1055.9,460.5c-5.2-4.5-10.1-9.3-14.6-14.4-.5-.6-1.4.3-.9.9,4.5,5.2,9.4,10,14.6,14.4.6.5,1.5-.4.9-.9h0Z"/>
        <path class="st4" d="M1078.1,475.7c-5.8-3.2-11.3-6.8-16.5-10.7-.6-.5-1.3.6-.6,1.1,5.3,4,10.8,7.5,16.5,10.7.7.4,1.3-.7.6-1.1h0Z"/>
        <path class="st4" d="M1160.2,491.5c-25.6,3.1-51.3-1.1-74.7-12-.7-.3-1.4.7-.6,1.1,23.5,11,49.5,15.3,75.3,12.2.8,0,.8-1.3,0-1.2h0Z"/>
        <path class="st4" d="M1271.5,318.8c17.5,58.5-6.6,122-58.5,154.1-.7.4,0,1.5.6,1.1,52.3-32.4,76.7-96.4,59.1-155.5-.2-.8-1.4-.4-1.2.3h0Z"/>
        <path class="st4" d="M1076.9,241.3c51.1-28.5,115.4-20.7,158.2,19.2.6.5,1.5-.3.9-.9-43.2-40.2-108.1-48.2-159.7-19.4-.7.4,0,1.5.6,1.1h0Z"/>
      </g>
      <g>
        <g>
          <path class="st4" d="M530.9,674.5h3c2.3,0,4.2.6,5.7,1.8,1.5,1.2,2.3,2.9,2.3,5.2s-.7,4.1-2.3,5.3c-1.5,1.2-3.4,1.8-5.8,1.8h-2.9v-14.1ZM532.7,687h.6c.9,0,1.8,0,2.6-.3.8-.2,1.5-.5,2.2-.9.6-.4,1.1-1,1.5-1.7.4-.7.5-1.6.5-2.6s-.2-1.9-.5-2.6c-.4-.7-.9-1.3-1.5-1.7-.6-.4-1.4-.7-2.1-.9-.8-.2-1.6-.3-2.6-.3h-.6v10.9Z"/>
          <path class="st4" d="M544.5,684.5c0,.8.3,1.5.8,2,.5.6,1.1.9,1.9.9s1.1-.1,1.5-.4c.4-.3.8-.7,1.1-1.3l1.4.8c-.4.8-1,1.3-1.7,1.8-.7.4-1.5.6-2.4.6-1.3,0-2.4-.4-3.2-1.3-.8-.9-1.2-2-1.2-3.3s.4-2.5,1.1-3.4c.7-.9,1.8-1.3,3.2-1.3s2.4.4,3.1,1.3c.7.9,1.1,2,1.1,3.4v.3h-6.8ZM549.5,683.2c-.1-.7-.4-1.2-.8-1.6-.4-.4-1-.6-1.7-.6s-.6,0-.9.2c-.3.1-.5.3-.8.5-.2.2-.4.4-.5.7-.1.3-.2.6-.3.9h5Z"/>
          <path class="st4" d="M556.3,681.8c-.2-.5-.6-.8-1.1-.8s-.5,0-.6.3c-.2.2-.3.4-.3.6s0,.4.2.6c.1.2.3.3.6.4.2,0,.3.1.4.2,0,0,.2.1.4.2,0,0,.2,0,.3.1,0,0,.1,0,.2,0,.6.3,1.1.6,1.5,1,.4.4.6.9.6,1.5s-.3,1.5-.9,2.1c-.6.6-1.3.8-2.1.8s-.7,0-1-.1c-.3,0-.6-.2-.9-.4-.3-.2-.5-.4-.7-.6-.2-.2-.4-.5-.5-.8l1.5-.7c.4.8,1,1.1,1.6,1.1s.5,0,.7-.2c.2-.1.4-.3.5-.5.1-.2.1-.5,0-.7,0-.2-.3-.5-.6-.7l-1.7-.9c-.3-.2-.5-.3-.8-.5-.2-.1-.4-.3-.5-.5-.1-.2-.2-.4-.3-.6,0-.2-.1-.4-.1-.7,0-.7.3-1.3.8-1.8.5-.5,1.1-.7,1.8-.7,1.1,0,1.9.5,2.4,1.5l-1.4.7Z"/>
          <path class="st4" d="M562.4,675.8c0,.3-.1.6-.3.8-.2.2-.5.3-.8.3s-.6-.1-.8-.3c-.2-.2-.3-.5-.3-.8s.1-.6.3-.8c.2-.2.5-.3.8-.3s.6.1.8.3c.2.2.3.5.3.8ZM562.1,688.6h-1.7v-8.8h1.7v8.8Z"/>
          <path class="st4" d="M573.1,688.4c0,1.7-.3,2.9-.9,3.8-.6.9-1.8,1.4-3.4,1.4s-2.3-.4-3.1-1.1c-.8-.7-1.2-1.7-1.2-2.9h1.7c0,.8.2,1.4.7,1.8.5.4,1.1.6,1.9.6s1.6-.3,2-.8c.4-.6.5-1.4.5-2.4v-1.7h0c-.4.5-.8.9-1.3,1.2-.5.3-1.1.4-1.7.4-1.3,0-2.3-.5-3.1-1.4-.8-.9-1.1-2-1.1-3.4s.4-2.3,1.2-3.2c.8-.9,1.8-1.4,3-1.4s2.3.6,3.1,1.8h0v-1.5h1.7v8.6ZM568.6,687.4c.9,0,1.6-.3,2.1-.9.5-.6.8-1.4.8-2.3s-.3-1.6-.8-2.2c-.5-.6-1.2-.9-2.1-.9s-1.5.3-2,.9c-.5.6-.8,1.4-.8,2.2s.3,1.6.8,2.2c.5.6,1.2.9,2,.9Z"/>
          <path class="st4" d="M577,681h0c.2-.5.6-.8,1.1-1.1.5-.3,1-.4,1.6-.4s1.1,0,1.5.3c.4.2.7.4,1,.8.2.3.4.7.5,1.2.1.5.2,1,.2,1.6v5.2h-1.7v-5c0-.9-.1-1.5-.4-1.9-.3-.4-.8-.6-1.6-.6s-.5,0-.7,0c-.2,0-.4.1-.5.2-.1.1-.3.2-.4.4,0,.1-.2.3-.3.5,0,0,0,.2-.1.3,0,.1,0,.3,0,.4,0,.1,0,.3,0,.4,0,.1,0,.3,0,.3v4.9h-1.7v-8.8h1.7v1.2Z"/>
          <path class="st4" d="M590.5,672.3h1.7v9h0c.8-1.1,1.8-1.7,3.1-1.7s2.2.5,3,1.4c.8.9,1.2,2,1.2,3.2s-.4,2.5-1.1,3.4c-.8.9-1.8,1.4-3.1,1.4s-1.2-.1-1.7-.4c-.5-.3-1-.7-1.3-1.2h0v1.4h-1.7v-16.3ZM595,687.4c.9,0,1.6-.3,2.1-.9.5-.6.8-1.4.8-2.3s-.3-1.6-.8-2.2c-.5-.6-1.2-.9-2.1-.9s-1.5.3-2,.9c-.5.6-.8,1.4-.8,2.2s.3,1.6.8,2.2c.5.6,1.2.9,2,.9Z"/>
          <path class="st4" d="M599.8,679.8h2l3,5.6,2.8-5.6h1.9l-7.2,13.8h-1.9l3.5-6.5-4.1-7.3Z"/>
          <path class="st4" d="M618.1,685.1l-1.6,3.5h-1.9l6.8-14.7,6.8,14.7h-1.9l-1.6-3.5h-6.6ZM621.3,677.7l-2.5,5.7h5.1l-2.5-5.7Z"/>
          <path class="st4" d="M630.9,688.6h-1.7v-16.3h1.7v16.3Z"/>
          <path class="st4" d="M635.1,688.6h-1.7v-16.3h1.7v16.3Z"/>
          <path class="st4" d="M641.6,681.9v1.4h-4.1v-1.4h4.1Z"/>
          <path class="st4" d="M648.2,674c-.5-.2-.9-.4-1.1-.4-.4,0-.6.1-.8.3-.2.2-.3.5-.3.8,0,.2,0,.4,0,.6,0,.1,0,.3,0,.6v3.8h2.3v1.6h-2.3v7.2h-1.7v-7.2h-.8v-1.6h.8v-4.3c0-2.3.9-3.5,2.9-3.5s.8,0,1.2.2v1.7Z"/>
          <path class="st4" d="M650.9,681.2h0c.2-.5.5-.9.9-1.2.4-.3.9-.4,1.5-.4s.9.1,1.4.4l-.8,1.5c-.3-.2-.6-.4-1-.4-.9,0-1.4.3-1.7,1.1-.1.3-.2.7-.3,1,0,.3,0,.7,0,1.1v4.3h-1.7v-8.8h1.7v1.4Z"/>
          <path class="st4" d="M656.7,684.5c0,.8.3,1.5.8,2,.5.6,1.1.9,1.9.9s1.1-.1,1.5-.4c.4-.3.8-.7,1.1-1.3l1.4.8c-.4.8-1,1.3-1.7,1.8-.7.4-1.5.6-2.4.6-1.3,0-2.4-.4-3.2-1.3-.8-.9-1.2-2-1.2-3.3s.4-2.5,1.1-3.4c.7-.9,1.8-1.3,3.2-1.3s2.4.4,3.1,1.3c.7.9,1.1,2,1.1,3.4v.3h-6.8ZM661.8,683.2c-.1-.7-.4-1.2-.8-1.6-.4-.4-1-.6-1.7-.6s-.6,0-.9.2c-.3.1-.5.3-.8.5-.2.2-.4.4-.5.7-.1.3-.2.6-.3.9h5Z"/>
          <path class="st4" d="M666,684.5c0,.8.3,1.5.8,2,.5.6,1.1.9,1.9.9s1.1-.1,1.5-.4c.4-.3.8-.7,1.1-1.3l1.4.8c-.4.8-1,1.3-1.7,1.8-.7.4-1.5.6-2.4.6-1.3,0-2.4-.4-3.2-1.3-.8-.9-1.2-2-1.2-3.3s.4-2.5,1.1-3.4c.7-.9,1.8-1.3,3.2-1.3s2.4.4,3.1,1.3c.7.9,1.1,2,1.1,3.4v.3h-6.8ZM671,683.2c-.1-.7-.4-1.2-.8-1.6-.4-.4-1-.6-1.7-.6s-.6,0-.9.2c-.3.1-.5.3-.8.5-.2.2-.4.4-.5.7-.1.3-.2.6-.3.9h5Z"/>
          <path class="st4" d="M678.2,681.9v1.4h-4.1v-1.4h4.1Z"/>
          <path class="st4" d="M687.1,687.2h0c-.4.5-.8.9-1.3,1.2-.5.3-1.1.4-1.7.4-1.3,0-2.4-.5-3.1-1.4-.8-.9-1.1-2-1.1-3.4s.4-2.3,1.2-3.2c.8-.9,1.8-1.4,3-1.4s2.3.6,3.1,1.7h0v-9h1.7v16.3h-1.7v-1.4ZM684.3,687.4c.9,0,1.6-.3,2.1-.9.5-.6.8-1.4.8-2.3s-.3-1.6-.8-2.2c-.5-.6-1.2-.9-2.1-.9s-1.5.3-2,.9c-.5.6-.8,1.4-.8,2.2s.2,1.6.8,2.2c.5.6,1.2.9,2,.9Z"/>
          <path class="st4" d="M691.6,680.9c.9-.9,2-1.3,3.4-1.3s2.4.4,3.4,1.3c.9.9,1.4,2,1.4,3.3s-.5,2.4-1.4,3.3c-.9.9-2,1.3-3.4,1.3s-2.5-.4-3.4-1.3c-.9-.9-1.4-2-1.4-3.3s.5-2.4,1.4-3.3ZM691.9,684.2c0,.8.3,1.5.9,2.2.6.6,1.3.9,2.1.9s1.6-.3,2.1-.9c.6-.6.9-1.4.9-2.2s-.3-1.5-.9-2.2c-.6-.6-1.3-.9-2.1-.9s-1.6.3-2.1.9c-.6.6-.9,1.3-.9,2.2Z"/>
          <path class="st4" d="M704.3,685.4l2.6-6.1,2.6,6.1,2.6-5.6h1.9l-4.5,9.1-2.6-5.9-2.6,5.9-4.5-9.1h1.9l2.6,5.6Z"/>
          <path class="st4" d="M716.5,681h0c.3-.5.6-.8,1.1-1.1.5-.3,1-.4,1.6-.4s1.1,0,1.5.3c.4.2.7.4,1,.8.2.3.4.7.5,1.2.1.5.2,1,.2,1.6v5.2h-1.7v-5c0-.9-.1-1.5-.4-1.9-.3-.4-.8-.6-1.6-.6s-.5,0-.7,0c-.2,0-.4.1-.5.2-.2.1-.3.2-.4.4-.1.1-.2.3-.3.5,0,0,0,.2-.1.3,0,.1,0,.3,0,.4,0,.1,0,.3,0,.4,0,.1,0,.3,0,.3v4.9h-1.7v-8.8h1.7v1.2Z"/>
          <path class="st4" d="M726.5,688.6h-1.7v-16.3h1.7v16.3Z"/>
          <path class="st4" d="M729.5,680.9c.9-.9,2-1.3,3.4-1.3s2.4.4,3.4,1.3c.9.9,1.4,2,1.4,3.3s-.5,2.4-1.4,3.3c-.9.9-2,1.3-3.4,1.3s-2.4-.4-3.4-1.3c-.9-.9-1.4-2-1.4-3.3s.5-2.4,1.4-3.3ZM729.9,684.2c0,.8.3,1.5.9,2.2.6.6,1.3.9,2.1.9s1.6-.3,2.1-.9c.6-.6.9-1.4.9-2.2s-.3-1.5-.9-2.2c-.6-.6-1.3-.9-2.1-.9s-1.6.3-2.1.9c-.6.6-.9,1.3-.9,2.2Z"/>
          <path class="st4" d="M747.5,688.6h-1.7v-1.4h0c-.7,1.1-1.8,1.7-3,1.7s-2.3-.5-3.1-1.4c-.8-.9-1.1-2-1.1-3.4s.4-2.3,1.2-3.2c.8-.9,1.8-1.4,3-1.4s2.3.6,3.1,1.7h0v-1.5h1.7v8.8ZM743,687.4c.9,0,1.6-.3,2.1-.9.5-.6.8-1.4.8-2.3s-.3-1.6-.8-2.2c-.5-.6-1.2-.9-2.1-.9s-1.5.3-2,.9c-.5.6-.8,1.4-.8,2.2s.3,1.6.8,2.2c.5.6,1.2.9,2,.9Z"/>
          <path class="st4" d="M756.3,687.2h0c-.3.5-.8.9-1.3,1.2-.5.3-1.1.4-1.7.4-1.3,0-2.3-.5-3.1-1.4-.8-.9-1.1-2-1.1-3.4s.4-2.3,1.1-3.2c.8-.9,1.8-1.4,3-1.4s2.3.6,3.1,1.7h0v-9h1.7v16.3h-1.7v-1.4ZM753.5,687.4c.9,0,1.6-.3,2.1-.9.5-.6.8-1.4.8-2.3s-.3-1.6-.8-2.2c-.5-.6-1.2-.9-2.1-.9s-1.5.3-2,.9c-.5.6-.8,1.4-.8,2.2s.3,1.6.8,2.2c.5.6,1.2.9,2,.9Z"/>
          <path class="st4" d="M762.9,687.8c0,.3-.1.6-.3.8-.2.2-.5.3-.8.3s-.6-.1-.8-.3c-.2-.2-.3-.5-.3-.8s.1-.5.3-.8c.2-.2.5-.3.8-.3s.6.1.8.3c.2.2.3.5.3.8Z"/>
          <path class="st4" d="M772.2,682.3c-.7-.8-1.6-1.2-2.5-1.2s-1.5.3-2.1.9c-.6.6-.8,1.4-.8,2.2s.3,1.7.8,2.2c.6.6,1.3.9,2.2.9s1.7-.4,2.4-1.2v2.2c-.7.4-1.6.6-2.4.6-1.3,0-2.4-.4-3.4-1.3-.9-.9-1.4-2-1.4-3.3s.5-2.5,1.4-3.4c.9-.9,2.1-1.3,3.5-1.3s1.7.2,2.4.6v2.2Z"/>
          <path class="st4" d="M774.6,680.9c.9-.9,2-1.3,3.4-1.3s2.4.4,3.3,1.3c.9.9,1.4,2,1.4,3.3s-.5,2.4-1.4,3.3c-.9.9-2,1.3-3.3,1.3s-2.5-.4-3.4-1.3c-.9-.9-1.4-2-1.4-3.3s.5-2.4,1.4-3.3ZM775,684.2c0,.8.3,1.5.9,2.2.6.6,1.3.9,2.1.9s1.5-.3,2.1-.9c.6-.6.9-1.4.9-2.2s-.3-1.5-.9-2.2c-.6-.6-1.3-.9-2.1-.9s-1.6.3-2.1.9c-.6.6-.9,1.3-.9,2.2Z"/>
          <path class="st4" d="M785.9,680.9h0c.3-.4.6-.7,1-1,.4-.3.9-.4,1.3-.4,1.1,0,2,.5,2.6,1.6.3-.5.7-.9,1.1-1.1.5-.3,1-.4,1.6-.4,2,0,2.9,1.3,2.9,3.8v5.2h-1.7v-5c0-.2,0-.5,0-.7,0-.2,0-.4-.1-.6,0-.2-.1-.4-.2-.6-.1-.2-.2-.3-.4-.5-.2-.2-.5-.2-.9-.2s-.7,0-.9.2c-.2.1-.4.3-.6.5-.1.2-.2.5-.3.8,0,.3-.1.6-.1.8,0,.2,0,.5,0,.9v4.3h-1.7v-4.6c0-.3,0-.5,0-.7,0-.2,0-.4-.1-.8,0-.3-.1-.6-.2-.7-.1-.2-.3-.3-.5-.5-.2-.1-.5-.2-.8-.2-.9,0-1.4.4-1.7,1.1-.1.4-.2.7-.2,1,0,.3,0,.7,0,1.1v4.3h-1.7v-8.8h1.7v1.1Z"/>
        </g>
        <g>
          <path class="st4" d="M491.2,683.4h24.1c.7,0,.7-1.1,0-1.1h-24.1c-.7,0-.7,1.1,0,1.1h0Z"/>
          <path class="st4" d="M812.1,683.4h24.1c.7,0,.7-1.1,0-1.1h-24.1c-.7,0-.7,1.1,0,1.1h0Z"/>
        </g>
      </g>
    </g>
  </g>
</svg>